# xmcd
#
# Track frame offsets:
#	182
#	18062
#	30170
#	44862
#	60495
#	74022
#	88320
#	102977
#	120767
#	133350
#	147862
#	164807
#
# Disc length: 2439 seconds
#
# Revision: 3
# Processed by: cddbd v1.5PL3 Copyright (c) Steve Scherf et al.
# Submitted via: dBpowerAMP V4.0
#
DISCID=ab09850c
DTITLE=Lucio Battisti - Vol. 3
DYEAR=1900
DGENRE=data
TTITLE0=Non è Francesca
TTITLE1=Dolce di giorno
TTITLE2=Adesso sì
TTITLE3=Prigioniero del mondo
TTITLE4=Era
TTITLE5=Balla Linda
TTITLE6=Un'avventura
TTITLE7=Io vivrò (senza te)
TTITLE8=Luisa Rossi
TTITLE9=La mia canzone per Maria
TTITLE10=Una
TTITLE11=7 Agosto di pomeriggio
EXTD=
EXTT0=
EXTT1=
EXTT2=
EXTT3=
EXTT4=
EXTT5=
EXTT6=
EXTT7=
EXTT8=
EXTT9=
EXTT10=
EXTT11=
PLAYORDER=
